<svg fill="currentColor" height="1em" viewBox="0 0 24 24" width="1em" xmlns="http://www.w3.org/2000/svg">
  <path clip-rule="evenodd"
        d="M6.75 4.5a2.25 2.25 0 1 0 0 4.5 2.25 2.25 0 0 0 0-4.5ZM2.5 6.75a4.25 4.25 0 1 1 8.5 0 4.25 4.25 0 0 1-8.5 0ZM17.25 4.5a2.25 2.25 0 1 0 0 4.5 2.25 2.25 0 0 0 0-4.5ZM13 6.75a4.25 4.25 0 1 1 8.5 0 4.25 4.25 0 0 1-8.5 0ZM6.75 15a2.25 2.25 0 1 0 0 4.5 2.25 2.25 0 0 0 0-4.5ZM2.5 17.25a4.25 4.25 0 1 1 8.5 0 4.25 4.25 0 0 1-8.5 0ZM17.25 15a2.25 2.25 0 1 0 0 4.5 2.25 2.25 0 0 0 0-4.5ZM13 17.25a4.25 4.25 0 1 1 8.5 0 4.25 4.25 0 0 1-8.5 0Z"
        fill-rule="evenodd"></path>
</svg>
