<svg fill="currentColor" height="18px" viewBox="0 0 24 24" width="18px" xmlns="http://www.w3.org/2000/svg">
  <path clip-rule="evenodd"
        d="M20.707 4.707a1 1 0 0 0-1.414-1.414L14.5 8.086l-.633-.634a3 3 0 0 0-3.786-.375l-7.636 5.09a1 1 0 0 0-.152 1.54l8 8a1 1 0 0 0 1.54-.152l5.09-7.636a3 3 0 0 0-.375-3.786l-.634-.633 4.793-4.793ZM11.19 8.742a1 1 0 0 1 1.262.124l2.681 2.682a1 1 0 0 1 .126 1.261l-.414.621-4.275-4.275.62-.413Zm-2.317 1.545L4.57 13.155 6 14.585l1.293-1.292a1 1 0 0 1 1.414 1.414L7.414 16l3.43 3.43 2.87-4.303-4.841-4.84Z"
        fill="#000"
        fill-rule="evenodd"></path>
</svg>
