<svg fill="currentColor" height="18px" viewBox="0 0 24 24" width="18px" xmlns="http://www.w3.org/2000/svg">
  <path clip-rule="evenodd"
        d="M8.522 6.536a7.25 7.25 0 1 1 11.996 8.106l.83 1.328a1 1 0 0 1-.848 1.53h-5.044a7.246 7.246 0 0 1-6.389 3.498A1.004 1.004 0 0 1 9 21H3.5a1 1 0 0 1-.848-1.53l.83-1.328a7.25 7.25 0 0 1 5.04-11.606Zm2.372.151a7.253 7.253 0 0 1 5.393 8.813h2.409l-.261-.417a1 1 0 0 1 .123-1.219 5.25 5.25 0 1 0-7.664-7.177ZM8.895 19a.997.997 0 0 1 .141-.004A5.25 5.25 0 1 0 4 13.75c0 1.401.547 2.672 1.442 3.614a1 1 0 0 1 .123 1.219l-.26.417h3.59Z"
        fill-rule="evenodd"></path>
</svg>
