<svg fill="currentColor" height="1em" viewBox="0 0 24 24" width="1em" xmlns="http://www.w3.org/2000/svg">
  <path clip-rule="evenodd"
        d="M5.68 7.094A7.965 7.965 0 0 0 4 12c0 1.849.627 3.551 1.68 4.906l2.148-2.149A4.977 4.977 0 0 1 7 12c0-1.02.305-1.967.828-2.757L5.68 7.094ZM4.258 5.67A9.959 9.959 0 0 0 2 12a9.96 9.96 0 0 0 2.258 6.33 1 1 0 0 0 1.412 1.412A9.959 9.959 0 0 0 12 22a9.959 9.959 0 0 0 6.33-2.258 1 1 0 0 0 1.412-1.412A9.959 9.959 0 0 0 22 12a9.959 9.959 0 0 0-2.258-6.33 1 1 0 0 0-1.412-1.412A9.959 9.959 0 0 0 12 2a9.959 9.959 0 0 0-6.33 2.258A1 1 0 0 0 4.258 5.67Zm2.836.01 2.149 2.148A4.977 4.977 0 0 1 12 7c1.02 0 1.967.305 2.757.828l2.149-2.148A7.965 7.965 0 0 0 12 4a7.965 7.965 0 0 0-4.906 1.68ZM18.32 7.094l-2.148 2.149c.523.79.828 1.738.828 2.757 0 1.02-.305 1.967-.828 2.757l2.148 2.149A7.965 7.965 0 0 0 20 12a7.966 7.966 0 0 0-1.68-4.906ZM16.906 18.32l-2.149-2.148A4.977 4.977 0 0 1 12 17a4.977 4.977 0 0 1-2.757-.828L7.094 18.32A7.966 7.966 0 0 0 12 20a7.965 7.965 0 0 0 4.906-1.68ZM12 9a3 3 0 1 0 0 6 3 3 0 0 0 0-6Z"
        fill-rule="evenodd"></path>
</svg>
