<svg fill="currentColor" height="1em" viewBox="0 0 24 24" width="1em" xmlns="http://www.w3.org/2000/svg">
  <path clip-rule="evenodd"
        d="M16.793 2.793a3.121 3.121 0 1 1 4.414 4.414l-8.5 8.5A1 1 0 0 1 12 16H9a1 1 0 0 1-1-1v-3a1 1 0 0 1 .293-.707l8.5-8.5Zm3 1.414a1.121 1.121 0 0 0-1.586 0L10 12.414V14h1.586l8.207-8.207a1.121 1.121 0 0 0 0-1.586ZM6 5a1 1 0 0 0-1 1v12a1 1 0 0 0 1 1h12a1 1 0 0 0 1-1v-4a1 1 0 1 1 2 0v4a3 3 0 0 1-3 3H6a3 3 0 0 1-3-3V6a3 3 0 0 1 3-3h4a1 1 0 1 1 0 2H6Z"
        fill-rule="evenodd"></path>
</svg>
